<svg xmlns="http://www.w3.org/2000/svg" width="42.935" height="79.861" viewBox="0 0 32.21 59.88"><defs><style>.a{fill:#002143}</style></defs><title>TUM_Unistift-Logo_OS_sw_RGB [Konvertiert]</title><path class="a" d="M32.21 24.99h-.88c-.08-1.44-.24-2.85-.41-4.13h1.29v-.23h-1.33c-.25-1.73-.51-3.19-.63-4.13h1.27v-.21h-1.3a5.13 5.13 0 0 1 0-.54l-.18-.52-.18.52v.53h-2.88v-4.12h1.52v-.17h-1.52v-.63l-.18-.52-.18.52v.63h-1.23V9.2l-.17-.56-.18.56v2.79h-1.26V9.06l-.18-.52-.18.52v2.93H21.2a11.12 11.12 0 0 0 1-5.18l-.18-.53-.17.53a10.68 10.68 0 0 1-1 5.18h-.27V6.36l-.18-.52-.18.52v5.63H18.6V6.67a3.87 3.87 0 0 0-.18-.43 3.81 3.81 0 0 0-.18.43v5.28h-.84V4.81l-.18-.52-.17.52v7.18h-2.86V.53l-.18-.54-.18.52v11.48H12.4c.1-1.29.17-2.49.17-3.52v-4.8a3.73 3.73 0 0 0-.18-.43 3.73 3.73 0 0 0-.18.43v4.76c0 1-.07 2.23-.17 3.52h-1.05V4.99l-.18-.52-.17.52v3.88a7.28 7.28 0 0 1-.61-2.47l-.18-.52-.14.52v.11c.05 1.7 1 2.41 1 4.57v.91H7.8V7.42l-.18-.52-.18.52v4.57h-1a15.72 15.72 0 0 1-.2-2.7l-.19-.56-.18.52a16.24 16.24 0 0 0 .2 2.7H4.6V9.99l-.18-.52-.17.52v2H2.71v.21h1.54v4.09h-3c.11-1.22.16-2.3.16-3.3l-.18-.52-.18.52c0 .95-.05 2.07-.12 3.3H0v.21h.92c-.07 1.29-.15 2.69-.21 4.13H0v.21h.71c0 1.13-.08 2.28-.08 3.42v.71H0v.21h.62a33.49 33.49 0 0 0 .3 4.12H0v.21h1a15 15 0 0 0 .74 3 8.31 8.31 0 0 0 .52 1.13h-1v.21h1.08a4.58 4.58 0 0 0 4.13 2.39 7 7 0 0 0 1-.08v1.87a1.65 1.65 0 0 0 .47 1.31 1.75 1.75 0 0 0 1.19.36 7.82 7.82 0 0 0 1.66-.25 9.16 9.16 0 0 0 .23 1.18c.29 1.06.82 2 1.84 2 1.13-.08 1.23-1.49 1.42-2.76.05-.42.12-.83.2-1.18a2.65 2.65 0 0 1 2.1 2.42v18.78h1.44V41.46a1.74 1.74 0 0 1 1.1-.36c1.06 0 2.7 1.22 3.64 1.95a3.63 3.63 0 0 0 1 .57 1.5 1.5 0 1 0 2.59-1.23 6.09 6.09 0 0 0 .6-2.71v-3.13a6.41 6.41 0 0 0 2.87-2.56v-.09h1.41v-.25h-1.3a11.91 11.91 0 0 0 1.23-4.13h1v-.21h-1a22.94 22.94 0 0 0 .15-2.64v-1.48h.9v-.2zM10.64 12.16v4.13h-1.3a1.92 1.92 0 0 0-1.56-1v-3.13h2.84zM7.8 33.86h2.84v1.64a19.22 19.22 0 0 0-2.84.27v-1.9zm0-.21v-1.8a1.57 1.57 0 0 0 1.4-1.19 7 7 0 0 1 1.44.5v2.5H7.8zm-1.52-4.07l-.07-.06h.1zm.17-.27h-.43a3.92 3.92 0 0 1-.45-.74 1.4 1.4 0 0 0-.67-2.24c-.07-.34-.13-.76-.19-1.15h1.43a1.54 1.54 0 0 0 1.3 1.41v2.14a1.56 1.56 0 0 0-.99.58zm2.8 1a1.55 1.55 0 0 0-.21-.76h1.6v1.24a7.44 7.44 0 0 0-1.39-.49zm-.35-1a1.56 1.56 0 0 0-1.1-.59v-2.11a1.54 1.54 0 0 0 1.42-1.42h1.43v4.12H8.9zm.32-4.32a1.54 1.54 0 0 0-1.42-1.44v-2.71h2.84v4.15H9.22zM7.8 20.63v-1.46a1.93 1.93 0 0 0 1.66-2.67h1.18v4.13H7.8zm-.36-8.47v2.83a11.86 11.86 0 0 1-1-2.78h1zm-2.84 0h1.5a14.87 14.87 0 0 0 1.13 3.21 1.93 1.93 0 0 0-1.22.91H4.6v-4.12zm0 4.34h1.3a1.93 1.93 0 0 0 1.55 2.66v1.46H4.6V16.5zm0 4.34h2.84v2.7a1.54 1.54 0 0 0-1.3 1.45H4.71c-.08-1-.11-1.85-.11-2.51v-1.64zM1.28 16.5h3v4.13H1.06c.06-1.44.15-2.84.22-4.13zm-.31 7.76c0-1.14 0-2.29.08-3.42h3.2v1.64c0 .66 0 1.54.11 2.49H.97v-.71zm0 .93h3.4c0 .36.08.72.14 1.08a1.42 1.42 0 1 0 0 2.84 1.41 1.41 0 0 0 .82-.27 4.44 4.44 0 0 0 .28.48H1.28a32.81 32.81 0 0 1-.3-4.14zm6.47 10.63a6.84 6.84 0 0 1-1 .08 4.18 4.18 0 0 1-3.71-2h4.71v2zm-4.82-2.17a8.13 8.13 0 0 1-.6-1.26 14.45 14.45 0 0 1-.71-2.87h4.4a2.83 2.83 0 0 0 .41.42 1.56 1.56 0 0 0 1.3 1.89v1.82h-4.8zm6.49 5.71a1.12 1.12 0 0 1-1.31-1.32v-1.91a18.5 18.5 0 0 1 2.84-.27v1.58a16 16 0 0 0 .07 1.67 7 7 0 0 1-1.6.25zm4.95-21.05a1.55 1.55 0 0 0-1.55 1.55 1.53 1.53 0 0 0 .21.77h-1.29c.16-1.27.33-2.68.5-4.13h1.9v1.83zm.13 16.1a12.16 12.16 0 0 1 1.27 2.58 4.53 4.53 0 0 0-1.27-.88V34.4zm-.35-10.42v1H11c0-.78.18-2.28.41-4.13h1.47a1.55 1.55 0 0 0 .42.35 1.49 1.49 0 0 0 .54 2.78zm-.22-2.61h.06zm-1.23-9.17h1.45v4.08h-1.88c.16-1.38.31-2.8.43-4.13zm-1.39 0h1c-.11 1.33-.26 2.74-.42 4.13h-.59v-4.18zm0 4.34h.59c-.17 1.45-.35 2.86-.5 4.13h-.1V16.5zm0 4.34h.06l-.06.46v-.51zm0 4.34h2.84v4.12h-2.85v-4.17zm0 4.34h2.84v3.72A8.86 8.86 0 0 0 11 30.92v-1.4zm0 1.81a8.63 8.63 0 0 1 2.66 2.32h-2.67v-2.37zm0 2.54h2.84v2.07A8.15 8.15 0 0 0 11 35.5v-1.64zm2.92 6c-.16 1.32-.39 2.5-1.05 2.46-.74 0-1.21-.71-1.5-1.75a8.76 8.76 0 0 1-.23-1.17 20 20 0 0 1 3-.65c-.12.29-.17.67-.23 1.04zm.26-1.48a18.06 18.06 0 0 0-3.1.65c-.06-.58-.08-1.14-.08-1.59v-1.64a8 8 0 0 1 2.84.51v.54a1.06 1.06 0 0 0 .49 1 2.78 2.78 0 0 0-.15.47zm0-1.47v-.43a4.27 4.27 0 0 1 .92.63 1.08 1.08 0 0 0-.62.46.75.75 0 0 1-.29-.72zm1.59 1.87a1.8 1.8 0 0 0-1.18-.4 2.88 2.88 0 0 1 .11-.3l.18-.32a.59.59 0 0 1 .53-.28h.05a4 4 0 0 1 .29.38v.05l.11.41c.06.27.12.54.16.8a1.31 1.31 0 0 0-.24-.41zm1.26 1.08v-.26a3.43 3.43 0 0 0-.3-.94l-.07-.12a3.4 3.4 0 0 0-.09-.41 1.41 1.41 0 0 0-.62-.86 12.49 12.49 0 0 0-1.65-3.39h2.78v6zm0-6.21h-2.84v-4.19h2.86v4.13zm0-4.34h-2.84v-4.19h2.86v4.12zm0-4.34h-2.84v-1.04a1.48 1.48 0 0 0 .64-2.76 1.55 1.55 0 0 0 .42-.35h1.8v4.11zm-2.6-3.62h.06zm2.6-.72h-1.64a1.53 1.53 0 0 0 .21-.77 1.54 1.54 0 0 0-1.42-1.54V16.5h2.86v4.13zm0-4.34h-2.84v-4.19h2.86v4.13zm9.93.21h2.92c.12.95.38 2.41.63 4.13h-3.53V16.5zm0 4.34h3.58c.18 1.28.34 2.69.42 4.13h-4v-4.19zm-.13 4.23a2.22 2.22 0 0 1 .41 0 2 2 0 0 0-.82 0 2.26 2.26 0 0 1 .43-.06zm-2.61 2.61a2.58 2.58 0 0 0 .59 1.63h-1v-4.19h2.35a2.6 2.6 0 0 0-1.92 2.5zm1.19-11.18h1.19v4.13h-.8c-.16-1.44-.31-2.84-.37-4.19zm.42 4.34h.77v4.09h-.13c-.09-.59-.19-1.21-.29-1.85a2.49 2.49 0 0 0-.29-2zm.07 2.91l.21 1.18h-1.75a2.61 2.61 0 0 0 1.56-1.24zm-2.27 1.33a2.27 2.27 0 0 1-.41 0 2 2 0 0 0 .82 0 2.27 2.27 0 0 1-.39-.06zm1.74-12.92h1.23v4.07h-1.2v-4.1zm-1.62 0h1.26v4.1h-1.23v-4.16zm-3.2 0h.16l-.13.3v-.3zm0 2a4.27 4.27 0 0 1 .52-2h2.32v4.07h-2.81v-2.12zm0 6.67h1c.06-.07.11-.15.18-.21h-1.2V16.5h2.84v3.36h.36V16.5h1.3c.06 1.33.2 2.71.38 4.07a2.61 2.61 0 1 0-2.47 4.42h-2.36v-4.15zm0 6.83v-2.54h2.84v4.12h-3a14.11 14.11 0 0 0 .19-1.63zm-.14 1.85h3v4.13h-3.82a33.15 33.15 0 0 0 .86-4.18zm1.92 7.36c-.86-.07-1.54-.13-2.11-.13a1.81 1.81 0 0 0-1.91.91c0 .1.58-1.6 1.18-3.8h3.9v1.58a2.87 2.87 0 0 1-.38 1.42zm.45.37a2.32 2.32 0 0 1-1.77 1 1.79 1.79 0 0 1-.66-.13 2.94 2.94 0 0 0-1.09-.24 1.38 1.38 0 0 0-.72.19 2.1 2.1 0 0 1 .17-.31c.27-.55.68-.7 1.6-.71.53 0 1.22.06 2.08.13zm-2.55-20.22a5.26 5.26 0 0 0-.29-.58h.29v.58zm0-4.92v4.13h-.41a7.93 7.93 0 0 1-1.21-4.13h1.62zm-2.83 0h.85a8.65 8.65 0 0 0 1 4.13H17.4v-4.13zm0 4.34h2a4.18 4.18 0 0 1 .83 2.27v1.85H17.4V16.5zm0 4.34h2.83v4.15H17.4v-4.15zm0 4.34h2.83v2.49a13.81 13.81 0 0 1-.1 1.63H17.4v-4.12zm0 4.34h2.7a25.73 25.73 0 0 1-1 4.13h-1.7v-4.13zm0 10v-5.66h1.68a57.78 57.78 0 0 0-1.68 5.64zm9.22.17a5.71 5.71 0 0 1-.52 2.46 1.49 1.49 0 0 0-2.32 1.11 3.57 3.57 0 0 1-.82-.48c-1-.71-2.56-2-3.85-2a2.6 2.6 0 0 0-1.1.31v-2a1.22 1.22 0 0 1 .32-.64 1.2 1.2 0 0 1 .93-.24 2.58 2.58 0 0 1 1 .22 2.15 2.15 0 0 0 .79.15 2.71 2.71 0 0 0 2.2-1.3h.14a8.57 8.57 0 0 0 3.23-.57v3zm0-3.35a8.16 8.16 0 0 1-3.18.6 3.29 3.29 0 0 0 .34-1.43v-1.65h2.84v2.46zm.36-.16v-2.3h2.46a6.07 6.07 0 0 1-2.46 2.28zm2.59-2.51h-2.59v-3.4h-.36v3.39h-2.84v-4.14h1.23a2.6 2.6 0 0 0 3.68 0h2.16a11.25 11.25 0 0 1-1.28 4.13zm1.3-4.34h-2a2.58 2.58 0 0 0-1.3-4.13h3.42v1.48a23.2 23.2 0 0 1-.12 2.63z"/></svg>