<svg width="16" height="14" viewBox="0 0 16 14" xmlns="http://www.w3.org/2000/svg"><title>icn_twitter</title><path d="M16 1.657c-.59.28-1.223.472-1.885.556A3.51 3.51 0 0 0 15.558.258a6.29 6.29 0 0 1-2.085.858C12.875.429 12.021 0 11.077 0 9.264 0 7.795 1.582 7.795 3.535c0 .277.028.547.085.805C5.151 4.192 2.732 2.786 1.113.648A3.73 3.73 0 0 0 .67 2.425c0 1.224.579 2.307 1.459 2.941a3.112 3.112 0 0 1-1.487-.442v.044c0 1.713 1.132 3.141 2.633 3.465a3.071 3.071 0 0 1-1.482.06c.417 1.405 1.63 2.427 3.066 2.455a6.283 6.283 0 0 1-4.076 1.513A6.35 6.35 0 0 1 0 12.412 8.822 8.822 0 0 0 5.031 14c6.039 0 9.341-5.385 9.341-10.057 0-.151-.003-.305-.01-.457A6.952 6.952 0 0 0 16 1.657" fill="#333" fill-rule="evenodd"/></svg>