<svg width="16" height="15" xmlns="http://www.w3.org/2000/svg"><defs><style>.cls-1{fill:#a0af00;fill-rule:evenodd}</style></defs><title>background</title><path id="canvas_background" fill="none" d="M-1-1h18v17H-1z"/><title>Layer 1</title><path id="icn_user.png_icn_user.svg" class="cls-1" d="M8 7a3.5 3.5 0 1 0-3.5-3.5A3.5 3.5 0 0 0 8 7zm0-6a2.5 2.5 0 1 1-2.5 2.5A2.5 2.5 0 0 1 8 1zm6.68 10.051A2.986 2.986 0 0 0 11.84 9H4.16a2.986 2.986 0 0 0-2.84 2.051L0 15h16l-1.32-3.949zM1.39 14l.88-2.633A1.988 1.988 0 0 1 4.16 10h7.68a1.988 1.988 0 0 1 1.89 1.367L14.61 14H1.39z"/></svg>