<svg width="195" height="14" viewBox="0 0 195 14" xmlns="http://www.w3.org/2000/svg"><title>Technical University of Munich</title><path d="M3.36 2.124H.028v-1.12h7.994v1.12H4.69V11H3.36V2.124zm9.244 4.564c-.019-.28-.082-.546-.189-.798s-.252-.469-.434-.651a2.057 2.057 0 0 0-1.463-.595c-.308 0-.586.054-.833.161-.247.107-.46.254-.637.441s-.317.404-.42.651a2.477 2.477 0 0 0-.182.791h4.158zm1.148 2.016c-.159.803-.509 1.414-1.05 1.834-.541.42-1.223.63-2.044.63-.579 0-1.08-.096-1.505-.287a3.03 3.03 0 0 1-1.071-.791 3.338 3.338 0 0 1-.651-1.204 5.802 5.802 0 0 1-.245-1.526c0-.541.084-1.043.252-1.505.168-.462.404-.861.707-1.197a3.213 3.213 0 0 1 2.443-1.064c.644 0 1.178.133 1.603.399.425.266.765.604 1.022 1.015.257.411.434.859.532 1.344.098.485.138.947.119 1.386H8.446c-.009.317.028.618.112.903.084.285.219.537.406.756.187.219.425.394.714.525s.63.196 1.022.196c.495 0 .905-.117 1.232-.35.327-.233.541-.588.644-1.064h1.176zm6.458-2.618c-.093-.457-.292-.812-.595-1.064s-.702-.378-1.197-.378c-.429 0-.789.079-1.078.238-.289.159-.52.369-.693.63a2.645 2.645 0 0 0-.371.903 4.904 4.904 0 0 0-.112 1.057c0 .336.04.663.119.98.079.317.203.6.371.847.168.247.385.446.651.595.266.149.59.224.973.224.579 0 1.036-.156 1.372-.469.336-.313.541-.744.616-1.295h1.218c-.131.887-.467 1.577-1.008 2.072-.541.495-1.269.742-2.184.742-.551 0-1.038-.091-1.463-.273a2.902 2.902 0 0 1-1.064-.763 3.27 3.27 0 0 1-.644-1.169 4.87 4.87 0 0 1-.217-1.491c0-.541.07-1.048.21-1.519a3.51 3.51 0 0 1 .637-1.232 3.01 3.01 0 0 1 1.064-.826c.425-.201.926-.301 1.505-.301.411 0 .796.049 1.155.147a2.9 2.9 0 0 1 .959.455c.28.205.506.464.679.777.173.313.282.684.329 1.113H20.21zm2.804-5.082h1.19v3.822h.028c.093-.215.226-.401.399-.56a2.3 2.3 0 0 1 .567-.385c.205-.098.422-.17.651-.217.229-.047.45-.07.665-.07.476 0 .873.065 1.19.196.317.131.574.313.77.546.196.233.334.511.413.833.079.322.119.679.119 1.071V11h-1.19V6.1c0-.448-.131-.803-.392-1.064s-.621-.392-1.078-.392c-.364 0-.679.056-.945.168a1.773 1.773 0 0 0-.665.476c-.177.205-.31.446-.399.721a2.919 2.919 0 0 0-.133.903V11h-1.19V1.004zm7.984 2.758h1.12V4.91h.028c.252-.448.576-.779.973-.994.397-.215.856-.322 1.379-.322.476 0 .873.065 1.19.196.317.131.574.313.77.546.196.233.334.511.413.833.079.322.119.679.119 1.071V11H35.8V6.1c0-.448-.131-.803-.392-1.064s-.621-.392-1.078-.392c-.364 0-.679.056-.945.168a1.773 1.773 0 0 0-.665.476c-.177.205-.31.446-.399.721a2.919 2.919 0 0 0-.133.903V11h-1.19V3.762zm9.244-1.302h-1.19V1.004h1.19V2.46zm-1.19 1.302h1.19V11h-1.19V3.762zm8.152 2.324c-.093-.457-.292-.812-.595-1.064s-.702-.378-1.197-.378c-.429 0-.789.079-1.078.238-.289.159-.52.369-.693.63a2.645 2.645 0 0 0-.371.903 4.904 4.904 0 0 0-.112 1.057c0 .336.04.663.119.98.079.317.203.6.371.847.168.247.385.446.651.595.266.149.59.224.973.224.579 0 1.036-.156 1.372-.469.336-.313.541-.744.616-1.295h1.218c-.131.887-.467 1.577-1.008 2.072-.541.495-1.269.742-2.184.742-.551 0-1.038-.091-1.463-.273a2.902 2.902 0 0 1-1.064-.763 3.27 3.27 0 0 1-.644-1.169 4.87 4.87 0 0 1-.217-1.491c0-.541.07-1.048.21-1.519a3.51 3.51 0 0 1 .637-1.232 3.01 3.01 0 0 1 1.064-.826c.425-.201.926-.301 1.505-.301.411 0 .796.049 1.155.147a2.9 2.9 0 0 1 .959.455c.28.205.506.464.679.777.173.313.282.684.329 1.113h-1.232zm9.216 4.886c-.215.131-.499.196-.854.196-.308 0-.553-.089-.735-.266-.182-.177-.273-.462-.273-.854a2.909 2.909 0 0 1-1.141.854 3.69 3.69 0 0 1-1.407.266c-.327 0-.637-.037-.931-.112a2.11 2.11 0 0 1-.763-.357c-.215-.163-.385-.373-.511-.63s-.189-.567-.189-.931c0-.411.07-.747.21-1.008a1.77 1.77 0 0 1 .553-.63c.229-.159.49-.282.784-.371.294-.089.595-.161.903-.217.327-.065.637-.114.931-.147.294-.033.553-.079.777-.14.224-.061.401-.149.532-.266.131-.117.196-.287.196-.511 0-.261-.049-.471-.147-.63a1.006 1.006 0 0 0-.378-.364 1.54 1.54 0 0 0-.518-.168 3.905 3.905 0 0 0-.567-.042c-.504 0-.924.096-1.26.287-.336.191-.518.553-.546 1.085h-1.19c.019-.448.112-.826.28-1.134a2.12 2.12 0 0 1 .672-.749c.28-.191.602-.329.966-.413a5.094 5.094 0 0 1 1.148-.126c.327 0 .651.023.973.07.322.047.614.142.875.287s.471.348.63.609c.159.261.238.602.238 1.022v3.724c0 .28.016.485.049.616s.142.196.329.196c.112 0 .233-.023.364-.07v.924zm-1.932-3.71a1.258 1.258 0 0 1-.42.196 5.563 5.563 0 0 1-.532.119 9.172 9.172 0 0 1-.595.084c-.21.023-.413.054-.609.091s-.383.084-.56.14c-.177.056-.331.133-.462.231s-.236.222-.315.371a1.188 1.188 0 0 0-.119.56c0 .196.04.362.119.497a.992.992 0 0 0 .308.329c.126.084.273.145.441.182.168.037.345.056.532.056.392 0 .728-.054 1.008-.161.28-.107.509-.243.686-.406.177-.163.308-.341.392-.532.084-.191.126-.371.126-.539V7.262zm3.308-6.258h1.19V11h-1.19V1.004zm15.506 6.384c0 1.269-.343 2.228-1.029 2.877-.686.649-1.654.973-2.905.973-.644 0-1.22-.075-1.729-.224a3.244 3.244 0 0 1-1.288-.7 3.096 3.096 0 0 1-.805-1.204c-.187-.485-.28-1.059-.28-1.722V1.004h1.33v6.384c0 .887.24 1.563.721 2.03.481.467 1.164.7 2.051.7.849 0 1.496-.233 1.939-.7.443-.467.665-1.143.665-2.03V1.004h1.33v6.384zm2.132-3.626h1.12V4.91h.028c.252-.448.576-.779.973-.994.397-.215.856-.322 1.379-.322.476 0 .873.065 1.19.196.317.131.574.313.77.546.196.233.334.511.413.833.079.322.119.679.119 1.071V11h-1.19V6.1c0-.448-.131-.803-.392-1.064s-.621-.392-1.078-.392c-.364 0-.679.056-.945.168a1.773 1.773 0 0 0-.665.476c-.177.205-.31.446-.399.721a2.919 2.919 0 0 0-.133.903V11h-1.19V3.762zm9.244-1.302h-1.19V1.004h1.19V2.46zm-1.19 1.302h1.19V11h-1.19V3.762zm6.5 7.238h-1.274l-2.688-7.238h1.33l2.03 6.034h.028l1.974-6.034h1.246L89.988 11zm8.964-4.312c-.019-.28-.082-.546-.189-.798s-.252-.469-.434-.651a2.057 2.057 0 0 0-1.463-.595c-.308 0-.586.054-.833.161-.247.107-.46.254-.637.441s-.317.404-.42.651a2.477 2.477 0 0 0-.182.791h4.158zm1.148 2.016c-.159.803-.509 1.414-1.05 1.834-.541.42-1.223.63-2.044.63-.579 0-1.08-.096-1.505-.287a3.03 3.03 0 0 1-1.071-.791 3.338 3.338 0 0 1-.651-1.204 5.802 5.802 0 0 1-.245-1.526c0-.541.084-1.043.252-1.505.168-.462.404-.861.707-1.197a3.213 3.213 0 0 1 2.443-1.064c.644 0 1.178.133 1.603.399.425.266.765.604 1.022 1.015.257.411.434.859.532 1.344.098.485.138.947.119 1.386h-5.418c-.009.317.028.618.112.903.084.285.219.537.406.756.187.219.425.394.714.525s.63.196 1.022.196c.495 0 .905-.117 1.232-.35.327-.233.541-.588.644-1.064h1.176zm1.502-4.942h1.12v1.526h.028c.289-.588.644-1.022 1.064-1.302.42-.28.952-.411 1.596-.392v1.26c-.476 0-.882.065-1.218.196a1.921 1.921 0 0 0-.812.574c-.205.252-.355.56-.448.924-.093.364-.14.775-.14 1.232V11h-1.19V3.762zm5.632 4.956c.009.271.07.495.182.672.112.177.259.32.441.427.182.107.387.184.616.231.229.047.464.07.707.07.187 0 .383-.014.588-.042a2.15 2.15 0 0 0 .567-.154c.173-.075.315-.184.427-.329a.878.878 0 0 0 .168-.553.8.8 0 0 0-.203-.567 1.534 1.534 0 0 0-.532-.357 4.174 4.174 0 0 0-.756-.231l-.875-.189c-.299-.065-.588-.145-.868-.238s-.532-.215-.756-.364a1.712 1.712 0 0 1-.539-.574c-.135-.233-.203-.523-.203-.868 0-.364.082-.677.245-.938.163-.261.373-.474.63-.637.257-.163.546-.285.868-.364.322-.079.642-.119.959-.119.401 0 .777.035 1.127.105.35.07.658.191.924.364s.478.406.637.7c.159.294.252.66.28 1.099h-1.19a1.167 1.167 0 0 0-.189-.581 1.282 1.282 0 0 0-.392-.371 1.703 1.703 0 0 0-.518-.203 2.7 2.7 0 0 0-.581-.063c-.177 0-.357.014-.539.042a1.812 1.812 0 0 0-.497.147.972.972 0 0 0-.364.287.715.715 0 0 0-.14.448c0 .215.072.387.217.518.145.131.329.24.553.329.224.089.476.163.756.224l.84.189c.299.065.59.145.875.238.285.093.537.217.756.371.219.154.397.348.532.581.135.233.203.523.203.868 0 .429-.091.791-.273 1.085-.182.294-.42.53-.714.707a3.111 3.111 0 0 1-.994.378 5.503 5.503 0 0 1-1.099.112 4.79 4.79 0 0 1-1.155-.133 2.942 2.942 0 0 1-.959-.42 2.1 2.1 0 0 1-.672-.756c-.168-.313-.261-.693-.28-1.141h1.19zm7.732-6.258h-1.19V1.004h1.19V2.46zm-1.19 1.302h1.19V11h-1.19V3.762zm4.89 0h1.442v1.05h-1.442v4.494c0 .14.012.252.035.336a.347.347 0 0 0 .133.196.581.581 0 0 0 .273.091c.117.014.268.021.455.021h.546V11h-.91a4.27 4.27 0 0 1-.791-.063 1.162 1.162 0 0 1-.532-.231.989.989 0 0 1-.301-.476c-.065-.205-.098-.476-.098-.812V4.812h-1.232v-1.05h1.232v-2.17h1.19v2.17zm5.8 8.204c-.14.355-.278.653-.413.896a2.535 2.535 0 0 1-.441.595 1.45 1.45 0 0 1-.546.336c-.205.07-.439.105-.7.105-.14 0-.28-.009-.42-.028a1.988 1.988 0 0 1-.406-.098V12.68l.343.112c.117.037.236.056.357.056.243 0 .439-.056.588-.168.149-.112.28-.275.392-.49l.49-1.232-2.87-7.196h1.344l2.114 5.922h.028l2.03-5.922h1.26l-3.15 8.204zm9.318-4.578c0 .439.058.828.175 1.169.117.341.278.625.483.854.205.229.446.404.721.525.275.121.567.182.875.182.308 0 .6-.061.875-.182s.516-.296.721-.525c.205-.229.366-.513.483-.854.117-.341.175-.73.175-1.169 0-.439-.058-.828-.175-1.169a2.528 2.528 0 0 0-.483-.861 2.057 2.057 0 0 0-.721-.532 2.15 2.15 0 0 0-.875-.182c-.308 0-.6.061-.875.182s-.516.299-.721.532c-.205.233-.366.52-.483.861-.117.341-.175.73-.175 1.169zm-1.26 0c0-.532.075-1.029.224-1.491a3.37 3.37 0 0 1 .672-1.204 3.18 3.18 0 0 1 1.099-.805c.434-.196.94-.294 1.519-.294.569 0 1.073.098 1.512.294.439.196.807.464 1.106.805.299.341.523.742.672 1.204.149.462.224.959.224 1.491 0 .532-.075 1.027-.224 1.484a3.383 3.383 0 0 1-.672 1.197 3.161 3.161 0 0 1-1.106.805c-.439.196-.943.294-1.512.294-.579 0-1.085-.098-1.519-.294a3.18 3.18 0 0 1-1.099-.805 3.383 3.383 0 0 1-.672-1.197 4.763 4.763 0 0 1-.224-1.484zm9.118-2.576h-1.218v-1.05h1.218V2.684c0-.588.17-1.034.511-1.337.341-.303.838-.455 1.491-.455l.385.028a2.1 2.1 0 0 1 .385.084V2.04a1.502 1.502 0 0 0-.336-.077l-.336-.021c-.289 0-.513.056-.672.168-.159.112-.238.327-.238.644v1.008h1.4v1.05h-1.4V11h-1.19V4.812zm8.17-3.808h1.82l3.15 8.4 3.164-8.4h1.82V11h-1.26V2.684h-.028L155.356 11h-1.134L151.1 2.684h-.028V11h-1.26V1.004zM167.974 11h-1.12V9.852h-.028c-.252.448-.576.779-.973.994-.397.215-.856.322-1.379.322-.476 0-.873-.065-1.19-.196a1.966 1.966 0 0 1-.77-.546 2.022 2.022 0 0 1-.413-.833 4.496 4.496 0 0 1-.119-1.071v-4.76h1.19v4.9c0 .448.131.803.392 1.064s.621.392 1.078.392c.364 0 .679-.056.945-.168.266-.112.488-.271.665-.476.177-.205.31-.446.399-.721.089-.275.133-.576.133-.903V3.762h1.19V11zm1.992-7.238h1.12V4.91h.028c.252-.448.576-.779.973-.994.397-.215.856-.322 1.379-.322.476 0 .873.065 1.19.196.317.131.574.313.77.546.196.233.334.511.413.833.079.322.119.679.119 1.071V11h-1.19V6.1c0-.448-.131-.803-.392-1.064s-.621-.392-1.078-.392c-.364 0-.679.056-.945.168a1.773 1.773 0 0 0-.665.476c-.177.205-.31.446-.399.721a2.919 2.919 0 0 0-.133.903V11h-1.19V3.762zm9.244-1.302h-1.19V1.004h1.19V2.46zm-1.19 1.302h1.19V11h-1.19V3.762zm8.152 2.324c-.093-.457-.292-.812-.595-1.064s-.702-.378-1.197-.378c-.429 0-.789.079-1.078.238-.289.159-.52.369-.693.63a2.645 2.645 0 0 0-.371.903 4.904 4.904 0 0 0-.112 1.057c0 .336.04.663.119.98.079.317.203.6.371.847.168.247.385.446.651.595.266.149.59.224.973.224.579 0 1.036-.156 1.372-.469.336-.313.541-.744.616-1.295h1.218c-.131.887-.467 1.577-1.008 2.072-.541.495-1.269.742-2.184.742-.551 0-1.038-.091-1.463-.273a2.902 2.902 0 0 1-1.064-.763 3.27 3.27 0 0 1-.644-1.169 4.87 4.87 0 0 1-.217-1.491c0-.541.07-1.048.21-1.519a3.51 3.51 0 0 1 .637-1.232 3.01 3.01 0 0 1 1.064-.826c.425-.201.926-.301 1.505-.301.411 0 .796.049 1.155.147a2.9 2.9 0 0 1 .959.455c.28.205.506.464.679.777.173.313.282.684.329 1.113h-1.232zm2.804-5.082h1.19v3.822h.028c.093-.215.226-.401.399-.56a2.3 2.3 0 0 1 .567-.385c.205-.098.422-.17.651-.217.229-.047.45-.07.665-.07.476 0 .873.065 1.19.196.317.131.574.313.77.546.196.233.334.511.413.833.079.322.119.679.119 1.071V11h-1.19V6.1c0-.448-.131-.803-.392-1.064s-.621-.392-1.078-.392c-.364 0-.679.056-.945.168a1.773 1.773 0 0 0-.665.476c-.177.205-.31.446-.399.721a2.919 2.919 0 0 0-.133.903V11h-1.19V1.004z" fill="#3070B3"/></svg>